<svg id="Capa_1" enable-background="new 0 0 510.52 510.52" height="512" viewBox="0 0 510.52 510.52" width="512" xmlns="http://www.w3.org/2000/svg"><g id="XMLID_93_"><path id="XMLID_436_" d="m371.4 328.431-31.583-2.581 53.156-122.488-85.817-85.817-122.487 53.156-2.582-31.583 131.85-57.22 114.683 114.683z" fill="#e3e3ec"/><path id="XMLID_936_" d="m371.269 139.23-21.214 21.214 42.918 42.918-53.156 122.488 31.583 2.581 57.22-131.85z" fill="#d0d0df"/><path id="XMLID_486_" d="m182.087 139.118-182.086 79.023 23.408 69.84 49.709 16.651 16.659 49.719 49.713 16.66 16.669 49.708 49.71 16.67 16.67 49.711 69.838 23.42 79.023-182.089z" fill="#f5f5f8"/><path id="XMLID_648_" d="m139.488 371.01.002.001 16.669 49.708 49.71 16.67 16.67 49.711 69.838 23.42 79.023-182.089-94.666-94.666z" fill="#e3e3ec"/><path id="XMLID_507_" d="m399.517 184.721-185.24 277.76-8.41-25.09-8.91-2.99 177.75-266.54z" fill="#d0d0df"/><path id="XMLID_504_" d="m341.957 135.042-264.8 181.659-4.04-12.07-21.11-7.069 273.01-187.27z" fill="#e3e3ec"/><path id="XMLID_862_" d="m436.275 95.456-21.213-21.213-291.465 291.448 15.89 5.32 5.33 15.89z" fill="#e3e3ec"/><path id="XMLID_590_" d="m139.487 371.011 5.33 15.89 291.458-291.445-10.616-10.616z" fill="#d0d0df"/><path id="XMLID_446_" d="m410.796 221.188-121.466-121.465 78.557-78.558 121.467 121.467zm-79.04-121.465 79.04 79.04 43.787-43.786-79.041-79.041z" fill="#d0d0df"/><path id="XMLID_684_" d="m415.052 95.446 39.531 39.531-43.787 43.786-39.53-39.53-21.213 21.213 60.743 60.742 78.557-78.556-60.743-60.744z" fill="#ababc5"/><path id="XMLID_501_" d="m485.402 25.116c-33.488-33.488-87.979-33.488-121.467 0l-10.606 10.606 121.467 121.467 10.606-10.606c33.488-33.488 33.488-87.979 0-121.467z" fill="#ff3f5c"/><path id="XMLID_671_" d="m485.402 25.116c-.003-.003-.007-.006-.01-.01l-71.34 71.34 60.743 60.743 10.606-10.606c33.489-33.488 33.489-87.979.001-121.467z" fill="#ff001e"/></g></svg>