<?xml version="1.0" encoding="iso-8859-1"?>
<!-- Generator: Adobe Illustrator 16.0.0, SVG Export Plug-In . SVG Version: 6.00 Build 0)  -->
<!DOCTYPE svg PUBLIC "-//W3C//DTD SVG 1.1//EN" "http://www.w3.org/Graphics/SVG/1.1/DTD/svg11.dtd">
<svg version="1.1" id="Capa_1" xmlns="http://www.w3.org/2000/svg" xmlns:xlink="http://www.w3.org/1999/xlink" x="0px" y="0px"
	 width="466.35px" height="466.35px" viewBox="0 0 466.35 466.35" style="enable-background:new 0 0 466.35 466.35;"
	 xml:space="preserve">
<g>
	<path d="M445.99,335.173l-33.065-33.065l-15.935,15.936L239.902,0h-14.307l-38.27,38.271l-1.384,75.715l-68.43-6.5l-10.026,10.027
		l6.501,68.428l-75.717,1.384L0,225.595V239.9l318.042,157.09l-15.935,15.934l33.065,33.066c27.146,27.146,71.159,27.146,98.305,0
		l12.511-12.512C473.137,406.332,473.137,362.32,445.99,335.173z M307.079,207.356l-15.627,15.627l-40.521-53.653l25.013-25.012
		L307.079,207.356z M268.894,245.54l-23.352,23.353l-53.653-40.521l36.483-36.484L268.894,245.54z M218.684,51.596l7.672-7.672
		l34.813,70.484l-29.465,29.464l-14.359-19.012L218.684,51.596z M194.093,146.499l15.053,19.932l-42.714,42.714L146.5,194.092
		l-4.996-52.589L194.093,146.499z M114.407,261.168l-70.483-34.813l7.673-7.672l73.264-1.338l19.013,14.359L114.407,261.168z
		 M207.358,307.076l-63.04-31.135l25.014-25.013l53.652,40.522L207.358,307.076z M237.268,321.851l11.174-11.173l63.877,48.243
		L237.268,321.851z M270.999,288.119l17.121-17.121l52.831,69.951L270.999,288.119z M310.679,248.439l11.173-11.173l37.07,75.05
		L310.679,248.439z"/>
</g>
<g>
</g>
<g>
</g>
<g>
</g>
<g>
</g>
<g>
</g>
<g>
</g>
<g>
</g>
<g>
</g>
<g>
</g>
<g>
</g>
<g>
</g>
<g>
</g>
<g>
</g>
<g>
</g>
<g>
</g>
</svg>
